# xmcd
# Copyright (C) 1995-1998 Ti Kan
#
# Track frame offsets:
#       150
#       20047
#       36823
#       50138
#       62235
#       78724
#       120720
#       149585
#       171738
#       191747
#       209032
#       231012
#       249403
#
# Disc length: 3693 seconds
#
# Revision: 0
# Processed by: cddbd v1.5.2PL0 Copyright (c) Steve Scherf et al.
# Submitted via: CD-Import v1.0
#
DISCID=d10e6b0d
DTITLE=Radyo Denge Roj Aydin Yildrim - 120427 Radyo Denge Roj
DYEAR=1900
DGENRE=
TTITLE0=120427 Radyo Denge Roj 01
TTITLE1=120427 Radyo Denge Roj 02
TTITLE2=120427 Radyo Denge Roj 03
TTITLE3=120427 Radyo Denge Roj 04
TTITLE4=120427 Radyo Denge Roj 05
TTITLE5=120427 Radyo Denge Roj 06
TTITLE6=120427 Radyo Denge Roj 07
TTITLE7=120427 Radyo Denge Roj 08
TTITLE8=120427 Radyo Denge Roj 09
TTITLE9=120427 Radyo Denge Roj 10
TTITLE10=120427 Radyo Denge Roj 11
TTITLE11=120427 Radyo Denge Roj 12
TTITLE12=120427 Radyo Denge Roj 13
EXTD=
EXTT0=
EXTT1=
EXTT2=
EXTT3=
EXTT4=
EXTT5=
EXTT6=
EXTT7=
EXTT8=
EXTT9=
EXTT10=
EXTT11=
EXTT12=
PLAYORDER=
